<svg xmlns="http://www.w3.org/2000/svg" width="100" height="60" viewBox="0 0 100 60"><rect width="100%" height="100%" fill="#DDDDDD"/><path fill="#999999" d="M24.145 34.305h2.08v1.48h-6.4v-1.48h2.35v-6.74q0-.4.02-.83l-1.66 1.39q-.15.12-.29.14-.14.03-.26.01-.13-.03-.22-.09-.1-.06-.15-.13l-.62-.85 3.53-3h1.62v10.1Zm11.96-4.3q0 1.51-.32 2.62-.33 1.12-.9 1.85-.57.73-1.35 1.08-.78.36-1.68.36-.91 0-1.68-.36-.77-.35-1.34-1.08-.57-.73-.89-1.85-.32-1.11-.32-2.62 0-1.52.32-2.64.32-1.11.89-1.84.57-.72 1.34-1.08.77-.36 1.68-.36.9 0 1.68.36.78.36 1.35 1.08.57.73.9 1.84.32 1.12.32 2.64Zm-2.04 0q0-1.26-.18-2.08-.19-.83-.49-1.32-.31-.48-.71-.68-.4-.2-.83-.2-.43 0-.82.2-.4.2-.7.68-.31.49-.49 1.32-.18.82-.18 2.08 0 1.25.18 2.08.18.82.49 1.31.3.49.7.68.39.2.82.2.43 0 .83-.2.4-.19.71-.68.3-.49.49-1.31.18-.83.18-2.08Zm11.32 0q0 1.51-.32 2.62-.33 1.12-.9 1.85-.57.73-1.35 1.08-.78.36-1.68.36-.91 0-1.68-.36-.77-.35-1.34-1.08-.57-.73-.89-1.85-.32-1.11-.32-2.62 0-1.52.32-2.64.32-1.11.89-1.84.57-.72 1.34-1.08.77-.36 1.68-.36.9 0 1.68.36.78.36 1.35 1.08.57.73.9 1.84.32 1.12.32 2.64Zm-2.04 0q0-1.26-.18-2.08-.19-.83-.49-1.32-.31-.48-.71-.68-.4-.2-.83-.2-.43 0-.82.2-.4.2-.7.68-.31.49-.49 1.32-.18.82-.18 2.08 0 1.25.18 2.08.18.82.49 1.31.3.49.7.68.39.2.82.2.43 0 .83-.2.4-.19.71-.68.3-.49.49-1.31.18-.83.18-2.08Zm14.75 3.13-1.05 1.03-2.71-2.71-2.74 2.73-1.05-1.03 2.74-2.75-2.61-2.6 1.04-1.04 2.61 2.6 2.59-2.59 1.06 1.04-2.6 2.6 2.72 2.72Zm12.36-8.92-3.44 4.2-.4.5q.34-.17.73-.26.39-.09.83-.09.66 0 1.28.21.62.22 1.09.65.47.44.76 1.09.29.65.29 1.51 0 .81-.3 1.52-.29.7-.83 1.23-.53.53-1.29.83-.76.31-1.67.31-.93 0-1.66-.3-.74-.29-1.26-.83-.52-.53-.79-1.28-.28-.74-.28-1.66 0-.81.33-1.67.33-.86 1.03-1.79l2.76-3.7q.14-.2.42-.33.28-.14.64-.14h1.76Zm-2.99 10.08q.47 0 .87-.16t.68-.45q.28-.28.44-.67.16-.39.16-.85 0-.49-.15-.89-.15-.39-.43-.67t-.67-.42q-.39-.14-.87-.14-.47 0-.85.16-.39.16-.66.44t-.42.67q-.15.39-.15.84 0 .48.13.87.13.4.39.68t.64.44q.39.15.89.15Zm13.54-4.29q0 1.51-.33 2.62-.32 1.12-.89 1.85-.57.73-1.35 1.08-.78.36-1.69.36-.9 0-1.67-.36-.78-.35-1.34-1.08-.57-.73-.89-1.85-.32-1.11-.32-2.62 0-1.52.32-2.64.32-1.11.89-1.84.56-.72 1.34-1.08.77-.36 1.67-.36.91 0 1.69.36.78.36 1.35 1.08.57.73.89 1.84.33 1.12.33 2.64Zm-2.04 0q0-1.26-.19-2.08-.18-.83-.49-1.32-.31-.48-.71-.68-.4-.2-.83-.2-.42 0-.82.2-.39.2-.7.68-.3.49-.48 1.32-.18.82-.18 2.08 0 1.25.18 2.08.18.82.48 1.31.31.49.7.68.4.2.82.2.43 0 .83-.2.4-.19.71-.68.31-.49.49-1.31.19-.83.19-2.08Z"/></svg>