<svg xmlns="http://www.w3.org/2000/svg" width="1250" height="700" viewBox="0 0 1250 700"><rect width="100%" height="100%" fill="#DDDDDD"/><path fill="#999999" d="M302.22 389.54h19.11v13.6h-58.8v-13.6h21.54v-61.96q0-3.67.22-7.57L269 332.8q-1.32 1.03-2.61 1.29-1.29.25-2.43.03-1.13-.22-2.02-.77-.88-.55-1.32-1.21l-5.73-7.87 32.41-27.56h14.92v92.83Zm73.13-3.3h27.27q2.94 0 4.67 1.65t1.73 4.37v10.88h-72.91v-6.03q0-1.83.77-3.86.77-2.02 2.46-3.63l32.27-32.34q4.04-4.12 7.24-7.87 3.19-3.75 5.32-7.42 2.14-3.68 3.27-7.46 1.14-3.79 1.14-7.98 0-3.82-1.1-6.72-1.1-2.91-3.12-4.89-2.02-1.98-4.85-2.98-2.83-.99-6.36-.99-3.23 0-5.99.92-2.76.92-4.89 2.57-2.13 1.66-3.6 3.86-1.47 2.21-2.21 4.85-1.24 3.38-3.23 4.49-1.98 1.1-5.73.51l-9.56-1.69q1.11-7.64 4.27-13.41 3.16-5.77 7.9-9.63 4.74-3.86 10.87-5.81 6.14-1.95 13.2-1.95 7.35 0 13.45 2.17t10.44 6.14q4.33 3.97 6.76 9.55 2.42 5.59 2.42 12.43 0 5.87-1.72 10.87-1.73 5-4.63 9.56-2.91 4.56-6.8 8.82-3.9 4.26-8.16 8.67l-23.96 24.48q3.45-1.03 6.87-1.58t6.5-.55Zm74.02-72.92-3.75 22.13q3.53-.74 6.76-1.07 3.24-.33 6.25-.33 8.38 0 14.77 2.5 6.4 2.5 10.73 6.91 4.34 4.41 6.55 10.32 2.2 5.92 2.2 12.76 0 8.45-2.98 15.43-2.97 6.98-8.26 11.95-5.3 4.96-12.54 7.68-7.24 2.72-15.76 2.72-5 0-9.48-1.03-4.49-1.03-8.42-2.76-3.93-1.73-7.28-3.97-3.34-2.24-5.99-4.74l5.59-7.72q1.76-2.5 4.63-2.5 1.84 0 3.75 1.18t4.37 2.57q2.46 1.4 5.81 2.58 3.34 1.17 8.05 1.17 4.99 0 8.82-1.62 3.82-1.61 6.35-4.52 2.54-2.9 3.83-6.9 1.28-4.01 1.28-8.71 0-8.68-5.03-13.57-5.04-4.88-14.89-4.88-7.57 0-15.5 2.79l-11.32-3.23 8.82-51.6h52.48v7.72q0 3.89-2.43 6.32-2.43 2.42-8.23 2.42h-29.18ZM582.62 350q0 13.89-2.97 24.14-2.98 10.26-8.23 16.95-5.26 6.68-12.43 9.96-7.16 3.27-15.47 3.27-8.3 0-15.4-3.27-7.09-3.28-12.31-9.96-5.22-6.69-8.16-16.95-2.94-10.25-2.94-24.14 0-13.97 2.94-24.18 2.94-10.22 8.16-16.91 5.22-6.69 12.31-9.96 7.1-3.27 15.4-3.27 8.31 0 15.47 3.27 7.17 3.27 12.43 9.96 5.25 6.69 8.23 16.91 2.97 10.21 2.97 24.18Zm-18.74 0q0-11.54-1.69-19.11t-4.52-12.05q-2.83-4.49-6.5-6.29-3.68-1.8-7.65-1.8-3.89 0-7.53 1.8t-6.43 6.29q-2.8 4.48-4.45 12.05-1.65 7.57-1.65 19.11t1.65 19.11q1.65 7.57 4.45 12.05 2.79 4.49 6.43 6.29 3.64 1.8 7.53 1.8 3.97 0 7.65-1.8 3.67-1.8 6.5-6.29 2.83-4.48 4.52-12.05 1.69-7.57 1.69-19.11Zm135.46 28.81-9.63 9.48-24.91-24.91-25.14 25.06-9.63-9.48 25.14-25.21-23.96-23.96 9.55-9.56 23.96 23.96 23.82-23.81 9.7 9.55-23.89 23.89 24.99 24.99Zm50.5-81.95h73.42v7.86q0 3.53-.73 5.7-.74 2.17-1.47 3.64l-40.28 82.91q-1.25 2.57-3.53 4.37-2.28 1.8-6.1 1.8h-13.16l41.09-81.22q1.4-2.5 2.76-4.59 1.36-2.1 3.05-4.01h-50.86q-1.69 0-2.94-1.25t-1.25-2.94v-12.27ZM909.85 350q0 13.89-2.98 24.14-2.98 10.26-8.23 16.95-5.26 6.68-12.42 9.96-7.17 3.27-15.48 3.27-8.3 0-15.39-3.27-7.1-3.28-12.32-9.96-5.21-6.69-8.15-16.95-2.94-10.25-2.94-24.14 0-13.97 2.94-24.18 2.94-10.22 8.15-16.91 5.22-6.69 12.32-9.96 7.09-3.27 15.39-3.27 8.31 0 15.48 3.27 7.16 3.27 12.42 9.96 5.25 6.69 8.23 16.91 2.98 10.21 2.98 24.18Zm-18.75 0q0-11.54-1.69-19.11t-4.52-12.05q-2.83-4.49-6.5-6.29-3.68-1.8-7.65-1.8-3.89 0-7.53 1.8t-6.43 6.29q-2.79 4.48-4.45 12.05-1.65 7.57-1.65 19.11t1.65 19.11q1.66 7.57 4.45 12.05 2.79 4.49 6.43 6.29 3.64 1.8 7.53 1.8 3.97 0 7.65-1.8 3.67-1.8 6.5-6.29 2.83-4.48 4.52-12.05 1.69-7.57 1.69-19.11Zm104.01 0q0 13.89-2.98 24.14-2.98 10.26-8.23 16.95-5.26 6.68-12.42 9.96-7.17 3.27-15.48 3.27-8.3 0-15.39-3.27-7.1-3.28-12.32-9.96-5.21-6.69-8.15-16.95-2.94-10.25-2.94-24.14 0-13.97 2.94-24.18 2.94-10.22 8.15-16.91 5.22-6.69 12.32-9.96 7.09-3.27 15.39-3.27 8.31 0 15.48 3.27 7.16 3.27 12.42 9.96 5.25 6.69 8.23 16.91 2.98 10.21 2.98 24.18Zm-18.75 0q0-11.54-1.69-19.11t-4.52-12.05q-2.83-4.49-6.5-6.29-3.68-1.8-7.65-1.8-3.89 0-7.53 1.8t-6.43 6.29q-2.79 4.48-4.45 12.05-1.65 7.57-1.65 19.11t1.65 19.11q1.66 7.57 4.45 12.05 2.79 4.49 6.43 6.29 3.64 1.8 7.53 1.8 3.97 0 7.65-1.8 3.67-1.8 6.5-6.29 2.83-4.48 4.52-12.05 1.69-7.57 1.69-19.11Z"/></svg>