<svg xmlns="http://www.w3.org/2000/svg" width="1451" height="760" viewBox="0 0 1451 760"><rect width="100%" height="100%" fill="#DDDDDD"/><path fill="#999999" d="M352.22 425.725h22.1v15.73h-68v-15.73h24.91v-71.65q0-4.25.25-8.76l-17.68 14.8q-1.53 1.18-3.01 1.48-1.49.3-2.81.04-1.32-.25-2.34-.89-1.02-.63-1.53-1.4l-6.63-9.1 37.49-31.87h17.25v107.35Zm55.85-30.6h37.4v-40.2q0-5.7.76-12.58l-38.16 52.78Zm55.67 0h15.47v12.16q0 1.7-1.1 2.93-1.11 1.23-3.15 1.23h-11.22v30.01h-18.27v-30.01h-51.85q-2.13 0-3.74-1.31-1.62-1.32-2.04-3.28l-2.21-10.62 58.22-77.78h19.89v76.67Zm58.65-57.54-4.33 25.58q4.08-.85 7.82-1.23t7.22-.38q9.69 0 17.09 2.89 7.39 2.89 12.41 7.99 5.01 5.1 7.56 11.94t2.55 14.75q0 9.78-3.44 17.85-3.44 8.07-9.56 13.81-6.12 5.74-14.49 8.88-8.38 3.15-18.24 3.15-5.78 0-10.96-1.19-5.19-1.19-9.73-3.19-4.55-2-8.42-4.59t-6.93-5.48l6.46-8.93q2.04-2.89 5.36-2.89 2.12 0 4.33 1.36t5.06 2.98q2.85 1.61 6.72 2.97 3.86 1.37 9.3 1.37 5.78 0 10.2-1.88 4.42-1.87 7.36-5.22 2.93-3.36 4.42-7.99 1.48-4.64 1.48-10.08 0-10.03-5.82-15.68t-17.21-5.65q-8.76 0-17.94 3.23l-13.09-3.74 10.2-59.67h60.69v8.92q0 4.51-2.8 7.31-2.81 2.81-9.52 2.81h-33.75Zm125.63 88.14h22.1v15.73h-68v-15.73h24.91v-71.65q0-4.25.25-8.76l-17.68 14.8q-1.53 1.18-3.01 1.48-1.49.3-2.81.04-1.32-.25-2.34-.89-1.02-.63-1.53-1.4l-6.63-9.1 37.49-31.87h17.25v107.35Zm163.46-12.41-11.14 10.97-28.81-28.82-29.07 28.99-11.14-10.97 29.07-29.15-27.71-27.71 11.05-11.05 27.71 27.71 27.54-27.54 11.22 11.05-27.62 27.62 28.9 28.9Zm58.39-94.77h84.92v9.09q0 4.08-.85 6.59t-1.7 4.21l-46.58 95.88q-1.44 2.97-4.08 5.06-2.64 2.08-7.05 2.08h-15.22l47.51-93.93q1.62-2.89 3.19-5.31 1.58-2.42 3.53-4.63h-58.82q-1.96 0-3.4-1.45-1.45-1.44-1.45-3.4v-14.19Zm171.54 0-36.47 44.62-4.25 5.27q3.57-1.78 7.69-2.76 4.12-.98 8.88-.98 6.98 0 13.56 2.3 6.59 2.29 11.61 6.93 5.01 4.63 8.07 11.51 3.06 6.89 3.06 16.07 0 8.58-3.14 16.11-3.15 7.52-8.85 13.13-5.69 5.61-13.72 8.84-8.04 3.23-17.73 3.23-9.86 0-17.68-3.15-7.82-3.14-13.34-8.79-5.53-5.65-8.46-13.6-2.93-7.95-2.93-17.64 0-8.67 3.53-17.81 3.52-9.14 10.92-19l29.33-39.35q1.52-2.04 4.46-3.49 2.93-1.44 6.75-1.44h18.71Zm-31.71 107.1q5.01 0 9.22-1.7 4.21-1.7 7.23-4.76 3.02-3.06 4.72-7.18 1.69-4.13 1.69-8.97 0-5.27-1.61-9.48-1.62-4.21-4.59-7.14-2.98-2.93-7.14-4.46-4.16-1.53-9.18-1.53t-9.1 1.7q-4.07 1.7-6.97 4.72-2.89 3.01-4.5 7.14-1.61 4.12-1.61 8.88 0 5.1 1.4 9.31 1.4 4.2 4.16 7.18 2.77 2.97 6.84 4.63 4.08 1.66 9.44 1.66Zm143.82-45.65q0 16.07-3.44 27.93-3.44 11.85-9.52 19.59-6.08 7.73-14.37 11.52-8.28 3.78-17.89 3.78-9.61 0-17.81-3.78-8.2-3.79-14.24-11.52-6.03-7.74-9.43-19.59-3.4-11.86-3.4-27.93 0-16.15 3.4-27.96 3.4-11.82 9.43-19.55 6.04-7.74 14.24-11.52 8.2-3.78 17.81-3.78t17.89 3.78q8.29 3.78 14.37 11.52 6.08 7.73 9.52 19.55 3.44 11.81 3.44 27.96Zm-21.67 0q0-13.34-1.96-22.1-1.95-8.75-5.23-13.94-3.27-5.18-7.52-7.26-4.25-2.09-8.84-2.09-4.5 0-8.71 2.09-4.21 2.08-7.44 7.26-3.23 5.19-5.14 13.94-1.91 8.76-1.91 22.1 0 13.35 1.91 22.1 1.91 8.76 5.14 13.94 3.23 5.19 7.44 7.27 4.21 2.08 8.71 2.08 4.59 0 8.84-2.08t7.52-7.27q3.28-5.18 5.23-13.94 1.96-8.75 1.96-22.1Z"/></svg>