<svg xmlns="http://www.w3.org/2000/svg" width="1540" height="385" viewBox="0 0 1540 385"><rect width="100%" height="100%" fill="#DDDDDD"/><path fill="#999999" d="M375.325 241.19h23.53v16.74h-72.4v-16.74h26.52V164.9q0-4.53.27-9.33l-18.82 15.75q-1.63 1.27-3.21 1.59-1.59.31-2.99.04-1.4-.27-2.49-.95-1.09-.68-1.63-1.49l-7.06-9.69 39.91-33.93h18.37v114.3Zm76.21-93.85-4.62 27.24q4.34-.91 8.33-1.31 3.98-.41 7.69-.41 10.32 0 18.19 3.08 7.87 3.07 13.21 8.5 5.34 5.43 8.06 12.72 2.71 7.28 2.71 15.7 0 10.41-3.66 19.01-3.67 8.59-10.19 14.7-6.51 6.11-15.43 9.46-8.91 3.35-19.41 3.35-6.15 0-11.67-1.27t-10.36-3.39q-4.85-2.13-8.96-4.89-4.12-2.76-7.38-5.84l6.88-9.5q2.17-3.08 5.7-3.08 2.26 0 4.62 1.45 2.35 1.45 5.38 3.17t7.15 3.17q4.12 1.44 9.91 1.44 6.15 0 10.86-1.99 4.71-1.99 7.83-5.56 3.12-3.58 4.7-8.51 1.59-4.93 1.59-10.72 0-10.68-6.2-16.7t-18.33-6.02q-9.32 0-19.09 3.44l-13.94-3.98 10.86-63.53h64.62v9.5q0 4.8-2.99 7.78-2.99 2.99-10.14 2.99h-35.92Zm88.23 61.27h39.82V165.8q0-6.06.82-13.39l-40.64 56.2Zm59.28 0h16.47v12.94q0 1.81-1.17 3.12-1.18 1.31-3.35 1.31h-11.95v31.95h-19.46v-31.95h-55.2q-2.26 0-3.98-1.4-1.72-1.4-2.18-3.48l-2.35-11.32 61.99-82.8h21.18v81.63Zm121.54-16.11q0 17.1-3.66 29.73-3.67 12.62-10.14 20.86-6.47 8.23-15.29 12.26-8.83 4.03-19.05 4.03-10.23 0-18.96-4.03-8.74-4.03-15.16-12.26-6.43-8.24-10.05-20.86-3.62-12.63-3.62-29.73 0-17.2 3.62-29.78 3.62-12.58 10.05-20.81 6.42-8.24 15.16-12.26 8.73-4.03 18.96-4.03 10.22 0 19.05 4.03 8.82 4.02 15.29 12.26 6.47 8.23 10.14 20.81 3.66 12.58 3.66 29.78Zm-23.08 0q0-14.21-2.08-23.53t-5.56-14.84q-3.49-5.52-8.01-7.74-4.53-2.22-9.41-2.22-4.8 0-9.28 2.22-4.48 2.22-7.92 7.74-3.44 5.52-5.47 14.84-2.04 9.32-2.04 23.53t2.04 23.53q2.03 9.32 5.47 14.84t7.92 7.74q4.48 2.22 9.28 2.22 4.88 0 9.41-2.22 4.52-2.22 8.01-7.74 3.48-5.52 5.56-14.84 2.08-9.32 2.08-23.53Zm166.8 35.47-11.86 11.68-30.68-30.68-30.95 30.86-11.86-11.67 30.96-31.05-29.51-29.5 11.77-11.76 29.5 29.5 29.32-29.32 11.95 11.76-29.41 29.41 30.77 30.77Zm75.29-62.35-11.76-2.08q1.35-9.41 5.25-16.52 3.89-7.1 9.72-11.85 5.84-4.75 13.4-7.15 7.56-2.4 16.24-2.4 9.05 0 16.34 2.58 7.28 2.58 12.44 7.15 5.16 4.57 7.92 10.72 2.76 6.16 2.76 13.31 0 6.24-1.4 10.99t-4.03 8.28q-2.62 3.53-6.51 5.98-3.9 2.44-8.78 4.07 11.76 3.71 17.55 11.31 5.8 7.6 5.8 19.1 0 9.77-3.62 17.28-3.62 7.51-9.78 12.63-6.15 5.11-14.25 7.73-8.1 2.63-17.15 2.63-9.87 0-17.2-2.26-7.33-2.27-12.76-6.7-5.43-4.44-9.23-10.86-3.8-6.43-6.51-14.84l9.86-4.08q3.89-1.62 7.29-.86 3.39.77 4.93 3.67 1.63 3.17 3.57 6.24 1.95 3.08 4.66 5.48 2.72 2.4 6.38 3.89 3.67 1.49 8.74 1.49 5.7 0 9.95-1.85 4.26-1.86 7.11-4.84 2.85-2.99 4.25-6.65 1.4-3.67 1.4-7.38 0-4.71-.99-8.55-1-3.85-4.17-6.56-3.16-2.72-9.09-4.26-5.93-1.54-15.88-1.54V183q8.23-.09 13.66-1.54t8.64-4.03q3.22-2.58 4.48-6.2 1.27-3.62 1.27-7.96 0-9.23-5.16-14.03-5.16-4.8-13.75-4.8-3.99 0-7.33 1.13-3.35 1.14-6.02 3.17-2.67 2.04-4.48 4.75-1.81 2.72-2.72 5.98-1.54 4.16-4.02 5.52-2.49 1.35-7.02.63Zm135.93 76.29q5.52 0 9.69-1.58 4.16-1.59 7.01-4.39 2.85-2.81 4.3-6.7 1.45-3.89 1.45-8.41 0-10.77-5.98-16.29-5.97-5.53-16.47-5.53t-16.47 5.53q-5.97 5.52-5.97 16.29 0 4.52 1.45 8.41 1.44 3.89 4.3 6.7 2.85 2.8 7.01 4.39 4.16 1.58 9.68 1.58Zm0-99.46q-4.97 0-8.59 1.54t-6.02 4.12q-2.4 2.58-3.53 5.93-1.13 3.34-1.13 7.06 0 3.89.95 7.55.95 3.67 3.21 6.52 2.26 2.85 5.97 4.57 3.71 1.72 9.14 1.72 5.43 0 9.14-1.72 3.71-1.72 5.98-4.57 2.26-2.85 3.21-6.52.95-3.66.95-7.55 0-3.72-1.18-7.06-1.17-3.35-3.53-5.93-2.35-2.58-5.97-4.12-3.62-1.54-8.6-1.54Zm22.08 47.24q11.95 3.89 17.65 11.9 5.7 8.01 5.7 19.6 0 8.69-3.3 15.74-3.3 7.06-9.28 12.04-5.97 4.98-14.34 7.69-8.37 2.72-18.51 2.72-10.13 0-18.5-2.72-8.38-2.71-14.35-7.69-5.97-4.98-9.27-12.04-3.31-7.05-3.31-15.74 0-11.59 5.7-19.6 5.7-8.01 17.65-11.9-9.5-3.98-14.25-11.31t-4.75-17.65q0-7.42 3.03-13.84 3.03-6.43 8.46-11.18 5.43-4.75 12.99-7.42 7.55-2.67 16.6-2.67t16.61 2.67q7.56 2.67 12.99 7.42 5.43 4.75 8.46 11.18 3.03 6.42 3.03 13.84 0 10.32-4.75 17.65-4.75 7.33-14.26 11.31Zm71.77-42.35-4.61 27.24q4.34-.91 8.32-1.31 3.98-.41 7.69-.41 10.32 0 18.19 3.08 7.88 3.07 13.22 8.5 5.34 5.43 8.05 12.72 2.72 7.28 2.72 15.7 0 10.41-3.67 19.01-3.66 8.59-10.18 14.7-6.52 6.11-15.43 9.46-8.91 3.35-19.41 3.35-6.16 0-11.68-1.27t-10.36-3.39q-4.84-2.13-8.96-4.89-4.12-2.76-7.37-5.84l6.87-9.5q2.18-3.08 5.71-3.08 2.26 0 4.61 1.45 2.35 1.45 5.39 3.17 3.03 1.72 7.15 3.17 4.11 1.44 9.91 1.44 6.15 0 10.86-1.99 4.7-1.99 7.82-5.56 3.13-3.58 4.71-8.51t1.58-10.72q0-10.68-6.2-16.7t-18.32-6.02q-9.32 0-19.1 3.44l-13.93-3.98 10.86-63.53h64.61v9.5q0 4.8-2.98 7.78-2.99 2.99-10.14 2.99h-35.93Z"/></svg>