<svg xmlns="http://www.w3.org/2000/svg" width="180" height="77" viewBox="0 0 180 77"><rect width="100%" height="100%" fill="#DDDDDD"/><path fill="#999999" d="M44.89 46.035h3.64v2.59h-11.2v-2.59h4.1v-11.8q0-.7.04-1.44l-2.91 2.43q-.25.2-.5.25-.24.05-.46 0-.22-.04-.39-.14-.16-.11-.25-.23l-1.09-1.5 6.17-5.25h2.85v17.68Zm13.51.11q.85 0 1.49-.24.65-.25 1.09-.68.44-.44.66-1.04.23-.6.23-1.3 0-1.67-.93-2.52-.92-.85-2.54-.85-1.63 0-2.55.85-.93.85-.93 2.52 0 .7.23 1.3.22.6.66 1.04.44.43 1.09.68.64.24 1.5.24Zm0-15.38q-.77 0-1.33.23-.56.24-.94.64-.37.4-.54.92-.18.52-.18 1.09 0 .6.15 1.17t.5 1.01q.35.44.92.7.58.27 1.42.27t1.41-.27q.57-.26.92-.7.35-.44.5-1.01.15-.57.15-1.17 0-.57-.18-1.09-.19-.52-.55-.92-.36-.4-.92-.64-.56-.23-1.33-.23Zm3.41 7.3q1.85.61 2.73 1.85.88 1.23.88 3.03 0 1.34-.51 2.43t-1.43 1.86q-.93.77-2.22 1.19-1.3.42-2.86.42-1.57 0-2.87-.42-1.29-.42-2.22-1.19-.92-.77-1.43-1.86-.51-1.09-.51-2.43 0-1.8.88-3.03.88-1.24 2.73-1.85-1.47-.61-2.21-1.75-.73-1.13-.73-2.73 0-1.14.47-2.14.47-.99 1.31-1.73.84-.73 2.01-1.14 1.17-.42 2.57-.42t2.56.42q1.17.41 2.01 1.14.84.74 1.31 1.73.47 1 .47 2.14 0 1.6-.73 2.73-.74 1.14-2.21 1.75Zm20.25.44q0 2.64-.57 4.6-.57 1.95-1.57 3.22-1 1.28-2.37 1.9-1.36.62-2.94.62-1.58 0-2.94-.62-1.35-.62-2.34-1.9-.99-1.27-1.55-3.22-.56-1.96-.56-4.6 0-2.66.56-4.61.56-1.94 1.55-3.22.99-1.27 2.34-1.89 1.36-.63 2.94-.63 1.58 0 2.94.63 1.37.62 2.37 1.89 1 1.28 1.57 3.22.57 1.95.57 4.61Zm-3.57 0q0-2.2-.33-3.64-.32-1.44-.86-2.3-.54-.85-1.24-1.19-.7-.35-1.45-.35-.74 0-1.44.35-.69.34-1.22 1.19-.53.86-.85 2.3-.31 1.44-.31 3.64t.31 3.64q.32 1.44.85 2.29.53.86 1.22 1.2.7.34 1.44.34.75 0 1.45-.34t1.24-1.2q.54-.85.86-2.29.33-1.44.33-3.64Zm25.8 5.49-1.84 1.8-4.74-4.74-4.79 4.77-1.83-1.81 4.78-4.8-4.56-4.56 1.82-1.82 4.56 4.56 4.54-4.53 1.85 1.82-4.55 4.55 4.76 4.76Zm9.62-15.61h13.98v1.49q0 .68-.14 1.09-.14.41-.28.69l-7.67 15.79q-.24.49-.67.84-.44.34-1.16.34h-2.51l7.83-15.47q.26-.48.52-.87.26-.4.58-.77h-9.69q-.32 0-.56-.24-.23-.23-.23-.56v-2.33Zm16.24 0h13.98v1.49q0 .68-.14 1.09-.14.41-.28.69l-7.67 15.79q-.24.49-.67.84-.44.34-1.16.34h-2.51l7.83-15.47q.26-.48.52-.87.26-.4.58-.77h-9.69q-.32 0-.56-.24-.23-.23-.23-.56v-2.33Z"/></svg>