<svg xmlns="http://www.w3.org/2000/svg" width="763" height="763" viewBox="0 0 763 763"><rect width="100%" height="100%" fill="#DDDDDD"/><path fill="#999999" d="M156.645 344.99h50.45v5.4q0 2.42-.5 3.91-.51 1.49-1.01 2.5l-27.68 56.97q-.85 1.77-2.42 3-1.57 1.24-4.19 1.24h-9.04l28.23-55.8q.96-1.72 1.89-3.16.94-1.44 2.1-2.75h-34.95q-1.16 0-2.02-.86-.86-.86-.86-2.02v-8.43Zm101.91 0-21.66 26.51-2.53 3.13q2.12-1.06 4.57-1.64 2.45-.58 5.28-.58 4.14 0 8.06 1.36 3.91 1.37 6.89 4.12 2.98 2.75 4.8 6.84 1.81 4.09 1.81 9.54 0 5.11-1.86 9.57-1.87 4.47-5.26 7.81-3.38 3.33-8.15 5.25-4.77 1.92-10.53 1.92-5.86 0-10.51-1.87-4.64-1.87-7.92-5.23-3.29-3.36-5.03-8.08-1.74-4.72-1.74-10.48 0-5.15 2.09-10.58 2.1-5.42 6.49-11.28l17.43-23.38q.91-1.22 2.65-2.07 1.74-.86 4.01-.86h11.11Zm-18.83 63.63q2.98 0 5.48-1.01 2.5-1.01 4.29-2.83t2.8-4.27q1.01-2.45 1.01-5.33 0-3.13-.96-5.63t-2.73-4.24q-1.76-1.74-4.24-2.65-2.47-.91-5.45-.91t-5.41 1.01q-2.42 1.01-4.14 2.8-1.71 1.8-2.67 4.25-.96 2.44-.96 5.27 0 3.03.83 5.53.83 2.5 2.48 4.27 1.64 1.77 4.06 2.75 2.42.99 5.61.99Zm41.41-42.12-6.57-1.16q.76-5.25 2.93-9.22 2.17-3.96 5.43-6.61 3.26-2.65 7.47-3.99 4.22-1.34 9.07-1.34 5.05 0 9.11 1.44 4.07 1.44 6.95 3.99 2.88 2.55 4.42 5.98 1.54 3.44 1.54 7.43 0 3.48-.79 6.13-.78 2.65-2.24 4.62-1.47 1.97-3.64 3.33-2.17 1.37-4.9 2.28 6.57 2.07 9.8 6.31 3.23 4.24 3.23 10.66 0 5.45-2.02 9.64t-5.45 7.05q-3.44 2.85-7.96 4.31-4.52 1.47-9.57 1.47-5.5 0-9.59-1.26-4.09-1.27-7.12-3.74-3.03-2.48-5.15-6.06-2.12-3.59-3.64-8.28l5.5-2.28q2.18-.9 4.07-.48 1.89.43 2.75 2.05.91 1.77 2 3.48 1.08 1.72 2.6 3.06 1.51 1.34 3.56 2.17 2.04.83 4.87.83 3.18 0 5.56-1.03 2.37-1.04 3.96-2.7 1.59-1.67 2.37-3.71.79-2.05.79-4.12 0-2.63-.56-4.77-.55-2.15-2.32-3.66-1.77-1.52-5.08-2.38-3.3-.86-8.86-.86v-8.88q4.6-.05 7.63-.86 3.03-.81 4.82-2.25 1.79-1.44 2.5-3.46t.71-4.44q0-5.15-2.88-7.83-2.88-2.68-7.68-2.68-2.22 0-4.09.63-1.87.64-3.36 1.77-1.49 1.14-2.5 2.65-1.01 1.52-1.51 3.34-.86 2.32-2.25 3.08-1.39.75-3.91.35Zm124.23 34.79-6.62 6.52-17.12-17.12-17.27 17.22-6.62-6.51 17.28-17.33-16.47-16.46 6.57-6.56 16.46 16.46 16.36-16.36 6.67 6.56-16.41 16.41 17.17 17.17Zm34.69-56.3h50.45v5.4q0 2.42-.51 3.91-.5 1.49-1.01 2.5l-27.67 56.97q-.86 1.77-2.42 3-1.57 1.24-4.2 1.24h-9.03l28.22-55.8q.96-1.72 1.9-3.16.93-1.44 2.09-2.75h-34.94q-1.16 0-2.02-.86-.86-.86-.86-2.02v-8.43Zm101.91 0-21.67 26.51-2.52 3.13q2.12-1.06 4.57-1.64 2.45-.58 5.28-.58 4.14 0 8.05 1.36 3.92 1.37 6.89 4.12 2.98 2.75 4.8 6.84 1.82 4.09 1.82 9.54 0 5.11-1.87 9.57-1.87 4.47-5.25 7.81-3.38 3.33-8.16 5.25-4.77 1.92-10.53 1.92-5.85 0-10.5-1.87t-7.93-5.23q-3.28-3.36-5.02-8.08-1.74-4.72-1.74-10.48 0-5.15 2.09-10.58 2.1-5.42 6.49-11.28l17.42-23.38q.91-1.22 2.65-2.07 1.75-.86 4.02-.86h11.11Zm-18.84 63.63q2.98 0 5.48-1.01 2.5-1.01 4.29-2.83 1.8-1.82 2.81-4.27 1.01-2.45 1.01-5.33 0-3.13-.96-5.63t-2.73-4.24q-1.77-1.74-4.24-2.65-2.48-.91-5.46-.91t-5.4 1.01q-2.42 1.01-4.14 2.8-1.72 1.8-2.68 4.25-.96 2.44-.96 5.27 0 3.03.84 5.53.83 2.5 2.47 4.27 1.64 1.77 4.07 2.75 2.42.99 5.6.99Zm41.41-42.12-6.56-1.16q.75-5.25 2.93-9.22 2.17-3.96 5.42-6.61 3.26-2.65 7.48-3.99 4.22-1.34 9.06-1.34 5.05 0 9.12 1.44 4.06 1.44 6.94 3.99 2.88 2.55 4.42 5.98 1.54 3.44 1.54 7.43 0 3.48-.78 6.13t-2.25 4.62q-1.46 1.97-3.63 3.33-2.18 1.37-4.9 2.28 6.56 2.07 9.79 6.31 3.24 4.24 3.24 10.66 0 5.45-2.02 9.64t-5.46 7.05q-3.43 2.85-7.95 4.31-4.52 1.47-9.57 1.47-5.51 0-9.6-1.26-4.09-1.27-7.12-3.74-3.03-2.48-5.15-6.06-2.12-3.59-3.63-8.28l5.5-2.28q2.17-.9 4.07-.48 1.89.43 2.75 2.05.91 1.77 1.99 3.48 1.09 1.72 2.6 3.06 1.52 1.34 3.56 2.17 2.05.83 4.88.83 3.18 0 5.55-1.03 2.38-1.04 3.97-2.7 1.59-1.67 2.37-3.71.78-2.05.78-4.12 0-2.63-.55-4.77-.56-2.15-2.33-3.66-1.76-1.52-5.07-2.38-3.31-.86-8.86-.86v-8.88q4.59-.05 7.62-.86 3.03-.81 4.82-2.25 1.8-1.44 2.5-3.46.71-2.02.71-4.44 0-5.15-2.88-7.83-2.88-2.68-7.67-2.68-2.23 0-4.09.63-1.87.64-3.36 1.77-1.49 1.14-2.5 2.65-1.01 1.52-1.52 3.34-.86 2.32-2.24 3.08-1.39.75-3.92.35Z"/></svg>